<?xml version="1.0" standalone="no"?><!DOCTYPE svg PUBLIC "-//W3C//DTD SVG 1.1//EN" "http://www.w3.org/Graphics/SVG/1.1/DTD/svg11.dtd"><svg t="1605374201514" class="icon" viewBox="0 0 1024 1024" version="1.1" xmlns="http://www.w3.org/2000/svg" p-id="1154" xmlns:xlink="http://www.w3.org/1999/xlink" width="200" height="200"><defs><style type="text/css"></style></defs><path d="M938.96883 1023.99H640.760743V683.638324h-255.797502v339.818681H85.688163v-13.069872c0-176.578276 0-352.888554 0.266998-529.466829 0-5.867943 3.466966-13.869865 8.001921-17.603829 138.434648-111.228914 277.136294-222.18983 416.103937-333.150746 0.533995-0.532995 1.599984-0.799992 3.200969-1.332987 45.344557 36.275646 91.223109 72.818289 136.834663 109.359932 91.489107 73.352284 182.978213 146.703567 275.002315 219.521856 10.401898 8.268919 14.402859 16.537838 14.402859 29.874708-0.532995 173.910302-0.265997 347.553606-0.265997 521.463908-0.266997 4.800953-0.266997 9.868904-0.266998 14.936854z" p-id="1155"></path><path d="M85.421166 85.888161h169.909341v119.496833C342.552655 135.767674 426.839832 68.283333 512.194998 0c22.939776 18.40482 46.144549 36.809641 69.350323 55.213461 144.569588 115.76287 289.139176 231.524739 433.975762 347.020611 6.668935 5.334948 9.602906 10.135901 9.335909 18.671818-0.799992 13.602867-0.266997 27.206734-0.266998 44.01057C852.281677 327.281804 682.637334 191.51513 512.194998 55.213461 342.01866 191.51513 172.109319 327.281804 0.066999 464.91646c0-19.204812-0.266997-35.475654 0.265998-51.479497 0-3.199969 3.734964-6.667935 6.401937-9.068912 22.672779-18.40482 45.611555-36.809641 68.817328-54.679466 7.468927-5.869943 10.135901-12.003883 9.869904-21.339792V101.625008 85.889161z" p-id="1156"></path></svg>